<mxfile host="app.diagrams.net" agent="Mozilla/5.0 (Macintosh; Intel Mac OS X 10_15_7) AppleWebKit/537.36 (KHTML, like Gecko) Chrome/137.0.0.0 Safari/537.36" version="27.1.1">
  <diagram name="PÃ¡gina-1" id="Vq99Ms_KkJOUKtjacHWf">
    <mxGraphModel dx="3778" dy="2875" grid="1" gridSize="10" guides="1" tooltips="1" connect="1" arrows="1" fold="1" page="1" pageScale="1" pageWidth="827" pageHeight="1169" math="0" shadow="0">
      <root>
        <mxCell id="0" />
        <mxCell id="1" parent="0" />
        <mxCell id="aWs9ds0aOqHGxszM1Bms-4" style="rounded=0;orthogonalLoop=1;jettySize=auto;html=1;exitX=1;exitY=0.5;exitDx=0;exitDy=0;entryX=0;entryY=0.5;entryDx=0;entryDy=0;startArrow=block;startFill=1;strokeWidth=2;endArrow=block;endFill=1;" edge="1" parent="1" source="nUzkdtZB0xW63iCa-Nw7-9" target="aWs9ds0aOqHGxszM1Bms-2">
          <mxGeometry relative="1" as="geometry" />
        </mxCell>
        <mxCell id="NRNRq8OHyKzjC0IbYxwc-1" value="" style="rounded=1;whiteSpace=wrap;html=1;fillColor=none;dashed=1;dashPattern=8 8;" parent="1" vertex="1">
          <mxGeometry x="84.87" y="910" width="215.25" height="74" as="geometry" />
        </mxCell>
        <mxCell id="nUzkdtZB0xW63iCa-Nw7-1" value="" style="html=1;overflow=block;blockSpacing=1;whiteSpace=wrap;fontSize=13;spacing=3.8;strokeOpacity=100;fillOpacity=100;rounded=1;absoluteArcSize=1;arcSize=9;fillColor=none;dashed=1;fixDash=1;dashPattern=8 8;strokeWidth=1.5;lucidId=JnLc.ZpfNVHS;container=1;collapsible=0;strokeColor=default;fontStyle=0" parent="1" vertex="1">
          <mxGeometry x="-641" y="90" width="1070" height="660" as="geometry" />
        </mxCell>
        <mxCell id="nUzkdtZB0xW63iCa-Nw7-2" value="Main App" style="html=1;overflow=block;blockSpacing=1;whiteSpace=wrap;fontSize=16.7;fontStyle=0;align=center;spacing=0;strokeOpacity=100;rounded=1;absoluteArcSize=1;arcSize=9;fillColor=none;strokeWidth=NaN;lucidId=2wLcyC94Hy3G;strokeColor=none;" parent="nUzkdtZB0xW63iCa-Nw7-1" vertex="1">
          <mxGeometry width="177" height="48.529411764705884" as="geometry" />
        </mxCell>
        <mxCell id="nUzkdtZB0xW63iCa-Nw7-17" value="Postgresql" style="html=1;overflow=block;blockSpacing=1;whiteSpace=wrap;fontSize=16.7;fontStyle=0;align=center;spacing=9;strokeOpacity=0;fillOpacity=100;rounded=1;absoluteArcSize=1;arcSize=9;fillColor=#9391ff;strokeWidth=1.5;lucidId=wK5c~Pdr7-m1;" parent="nUzkdtZB0xW63iCa-Nw7-1" vertex="1">
          <mxGeometry x="611" y="491.31406593406587" width="105" height="39.37205651491365" as="geometry" />
        </mxCell>
        <mxCell id="nUzkdtZB0xW63iCa-Nw7-26" value="Postgresql" style="html=1;overflow=block;blockSpacing=1;whiteSpace=wrap;fontSize=16.7;fontStyle=0;align=center;spacing=9;strokeOpacity=0;fillOpacity=100;rounded=1;absoluteArcSize=1;arcSize=9;fillColor=#9391ff;strokeWidth=1.5;lucidId=7Q5c18RX_lc8;" parent="nUzkdtZB0xW63iCa-Nw7-1" vertex="1">
          <mxGeometry x="611" y="100" width="105" height="38" as="geometry" />
        </mxCell>
        <mxCell id="nUzkdtZB0xW63iCa-Nw7-11" value="Auth" style="html=1;overflow=block;blockSpacing=1;whiteSpace=wrap;fontSize=16.7;fontColor=#ffffff;fontStyle=0;align=center;spacing=9;verticalAlign=top;strokeOpacity=0;fillOpacity=100;rounded=1;absoluteArcSize=1;arcSize=9;fillColor=#979ea8;strokeWidth=1.5;lucidId=zFLcMGYKQzSj;" parent="nUzkdtZB0xW63iCa-Nw7-1" vertex="1">
          <mxGeometry x="757" y="56.5" width="153" height="125" as="geometry" />
        </mxCell>
        <mxCell id="nUzkdtZB0xW63iCa-Nw7-27" value="" style="html=1;jettySize=18;whiteSpace=wrap;fontSize=13;strokeColor=#5E5E5E;strokeWidth=1.5;rounded=1;arcSize=12;edgeStyle=orthogonalEdgeStyle;startArrow=block;startFill=1;endArrow=block;endFill=1;exitX=1;exitY=0.5;exitPerimeter=0;entryX=0;entryY=0.5;entryPerimeter=0;lucidId=c07cQfm66~gC;fontStyle=0" parent="nUzkdtZB0xW63iCa-Nw7-1" source="nUzkdtZB0xW63iCa-Nw7-26" target="nUzkdtZB0xW63iCa-Nw7-11" edge="1">
          <mxGeometry width="100" height="100" relative="1" as="geometry">
            <Array as="points" />
          </mxGeometry>
        </mxCell>
        <mxCell id="nUzkdtZB0xW63iCa-Nw7-28" value="Firebase" style="html=1;overflow=block;blockSpacing=1;whiteSpace=wrap;fontSize=16.7;fontStyle=0;align=center;spacing=9;verticalAlign=top;strokeOpacity=0;fillOpacity=100;rounded=1;absoluteArcSize=1;arcSize=9;fillColor=#fff7a1;strokeWidth=1.5;lucidId=ZR5cOLYeTa5N;" parent="nUzkdtZB0xW63iCa-Nw7-1" vertex="1">
          <mxGeometry x="779" y="120" width="109" height="38" as="geometry" />
        </mxCell>
        <mxCell id="aWs9ds0aOqHGxszM1Bms-2" value="Documents" style="html=1;overflow=block;blockSpacing=1;whiteSpace=wrap;fontSize=16.7;fontColor=#ffffff;fontStyle=0;align=center;spacing=9;verticalAlign=middle;strokeOpacity=0;fillOpacity=100;rounded=1;absoluteArcSize=1;arcSize=9;fillColor=#979ea8;strokeWidth=1.5;lucidId=zFLcMGYKQzSj;" vertex="1" parent="nUzkdtZB0xW63iCa-Nw7-1">
          <mxGeometry x="757" y="281.5" width="153" height="85" as="geometry" />
        </mxCell>
        <mxCell id="aWs9ds0aOqHGxszM1Bms-5" value="" style="html=1;jettySize=18;whiteSpace=wrap;fontSize=13;strokeColor=default;strokeWidth=1.5;rounded=0;startArrow=block;startFill=1;endArrow=block;endFill=1;exitX=0.998;exitY=0.978;exitPerimeter=0;entryX=0;entryY=0.5;lucidId=R47cojJWgUcy;fontStyle=0;entryDx=0;entryDy=0;" edge="1" parent="nUzkdtZB0xW63iCa-Nw7-1" target="nUzkdtZB0xW63iCa-Nw7-16">
          <mxGeometry width="100" height="100" relative="1" as="geometry">
            <Array as="points" />
            <mxPoint x="910" y="323.47" as="sourcePoint" />
            <mxPoint x="977" y="324.47" as="targetPoint" />
          </mxGeometry>
        </mxCell>
        <mxCell id="aWs9ds0aOqHGxszM1Bms-7" value="" style="html=1;jettySize=18;whiteSpace=wrap;fontSize=13;strokeColor=#5E5E5E;strokeWidth=1.5;rounded=1;arcSize=12;edgeStyle=orthogonalEdgeStyle;startArrow=block;startFill=1;endArrow=block;endFill=1;exitX=1;exitY=0.5;exitPerimeter=0;entryX=0;entryY=0.5;entryPerimeter=0;lucidId=c07cQfm66~gC;fontStyle=0" edge="1" parent="nUzkdtZB0xW63iCa-Nw7-1">
          <mxGeometry width="100" height="100" relative="1" as="geometry">
            <Array as="points" />
            <mxPoint x="716" y="323.44" as="sourcePoint" />
            <mxPoint x="757" y="323.44" as="targetPoint" />
          </mxGeometry>
        </mxCell>
        <mxCell id="aWs9ds0aOqHGxszM1Bms-6" value="Postgresql" style="html=1;overflow=block;blockSpacing=1;whiteSpace=wrap;fontSize=16.7;fontStyle=0;align=center;spacing=9;strokeOpacity=0;fillOpacity=100;rounded=1;absoluteArcSize=1;arcSize=9;fillColor=#9391ff;strokeWidth=1.5;lucidId=7Q5c18RX_lc8;" vertex="1" parent="nUzkdtZB0xW63iCa-Nw7-1">
          <mxGeometry x="611" y="305" width="105" height="38" as="geometry" />
        </mxCell>
        <mxCell id="nUzkdtZB0xW63iCa-Nw7-3" value="Clientes" style="html=1;overflow=block;blockSpacing=1;whiteSpace=wrap;fontSize=16.7;fontColor=#ffffff;fontStyle=0;align=center;spacing=9;strokeOpacity=0;fillOpacity=100;rounded=1;absoluteArcSize=1;arcSize=24;fillColor=#fe7070;strokeWidth=1.5;lucidId=RmLct_.-iw2U;strokeColor=default;" parent="1" vertex="1">
          <mxGeometry x="-606" y="920" width="153" height="68" as="geometry" />
        </mxCell>
        <mxCell id="nUzkdtZB0xW63iCa-Nw7-4" value="Gateway" style="html=1;overflow=block;blockSpacing=1;whiteSpace=wrap;fontSize=16.7;fontColor=#ffffff;fontStyle=0;align=left;spacing=9;verticalAlign=top;strokeOpacity=0;fillOpacity=100;rounded=1;absoluteArcSize=1;arcSize=9;fillColor=#fe7070;strokeWidth=1.5;lucidId=-nLctIyqQpKD;" parent="1" vertex="1">
          <mxGeometry x="-606" y="198" width="153" height="433" as="geometry" />
        </mxCell>
        <mxCell id="nUzkdtZB0xW63iCa-Nw7-5" value="" style="html=1;jettySize=18;whiteSpace=wrap;fontSize=13;strokeColor=default;strokeWidth=1.5;rounded=1;arcSize=12;edgeStyle=orthogonalEdgeStyle;startArrow=block;startFill=1;endArrow=block;endFill=1;exitX=0.5;exitY=0;exitPerimeter=0;entryX=0.5;entryY=1;entryPerimeter=0;lucidId=QoLcqt0XIGcD;fontStyle=0" parent="1" source="nUzkdtZB0xW63iCa-Nw7-3" target="nUzkdtZB0xW63iCa-Nw7-4" edge="1">
          <mxGeometry width="100" height="100" relative="1" as="geometry">
            <Array as="points" />
          </mxGeometry>
        </mxCell>
        <mxCell id="nUzkdtZB0xW63iCa-Nw7-6" value="API REST (Port 3000)" style="html=1;overflow=block;blockSpacing=1;whiteSpace=wrap;fontSize=13.3;fontColor=#ffffff;fontStyle=0;align=center;spacing=9;verticalAlign=top;strokeColor=#ffffff;strokeOpacity=100;fillOpacity=100;rounded=1;absoluteArcSize=1;arcSize=9;fillColor=#635dff;strokeWidth=1.5;lucidId=1pLclZ~fW~v9;" parent="1" vertex="1">
          <mxGeometry x="-578" y="780" width="97" height="53" as="geometry" />
        </mxCell>
        <mxCell id="nUzkdtZB0xW63iCa-Nw7-7" value="" style="html=1;jettySize=18;whiteSpace=wrap;fontSize=13;strokeColor=default;strokeWidth=1.5;rounded=1;arcSize=12;edgeStyle=orthogonalEdgeStyle;startArrow=block;startFill=1;endArrow=block;endFill=1;exitX=1;exitY=0.5;exitPerimeter=0;entryX=0;entryY=0.512;entryPerimeter=0;lucidId=1uLcdHQcy45G;fontStyle=0" parent="1" source="nUzkdtZB0xW63iCa-Nw7-4" target="nUzkdtZB0xW63iCa-Nw7-8" edge="1">
          <mxGeometry width="100" height="100" relative="1" as="geometry">
            <Array as="points" />
          </mxGeometry>
        </mxCell>
        <mxCell id="nUzkdtZB0xW63iCa-Nw7-8" value="" style="html=1;overflow=block;blockSpacing=1;whiteSpace=wrap;fontSize=13;spacing=3.8;strokeOpacity=0;fillOpacity=0;rounded=1;absoluteArcSize=1;arcSize=9;fillColor=#000000;strokeWidth=1.5;lucidId=rsLcWDJ5Ysgo;container=1;collapsible=0;fontStyle=0" parent="1" vertex="1">
          <mxGeometry x="-269" y="378" width="197" height="70" as="geometry" />
        </mxCell>
        <mxCell id="nUzkdtZB0xW63iCa-Nw7-9" value="" style="html=1;overflow=block;blockSpacing=1;whiteSpace=wrap;shape=image;fontSize=13;spacing=0;strokeColor=none;strokeOpacity=0;rounded=1;absoluteArcSize=1;arcSize=9;strokeWidth=0;image=https://images.lucid.app/images/ae4e89b2-02f5-4e97-ba42-690f64125aed/content;imageAspect=0;lucidId=~rLc3KaBmfgj;fontStyle=0" parent="nUzkdtZB0xW63iCa-Nw7-8" vertex="1">
          <mxGeometry x="8" y="13" width="179" height="46" as="geometry" />
        </mxCell>
        <mxCell id="nUzkdtZB0xW63iCa-Nw7-10" value="" style="html=1;jettySize=18;whiteSpace=wrap;fontSize=13;strokeColor=default;strokeWidth=1.5;rounded=1;arcSize=12;edgeStyle=orthogonalEdgeStyle;startArrow=block;startFill=1;endArrow=block;endFill=1;exitX=0.003;exitY=0.98;exitPerimeter=0;entryX=0.988;entryY=0.043;entryPerimeter=0;lucidId=SELcSNIdHtes;fontStyle=0" parent="1" source="nUzkdtZB0xW63iCa-Nw7-11" target="nUzkdtZB0xW63iCa-Nw7-9" edge="1">
          <mxGeometry width="100" height="100" relative="1" as="geometry">
            <Array as="points" />
          </mxGeometry>
        </mxCell>
        <mxCell id="nUzkdtZB0xW63iCa-Nw7-13" value="" style="html=1;overflow=block;blockSpacing=1;whiteSpace=wrap;shape=image;fontSize=13;spacing=0;strokeColor=none;strokeOpacity=100;rounded=1;absoluteArcSize=1;arcSize=9;strokeWidth=0;image=https://images.lucid.app/images/39a74699-c532-4a9b-a638-7d78ca7f8116/content;imageAspect=0;lucidId=dULcUWT8Teqr;fontStyle=0;clipPath=inset(16% 25.67% 39.33% 27.67%);aspect=fixed;" parent="1" vertex="1">
          <mxGeometry x="210" y="921.5" width="53.28" height="51" as="geometry" />
        </mxCell>
        <mxCell id="nUzkdtZB0xW63iCa-Nw7-14" value="" style="html=1;jettySize=18;whiteSpace=wrap;fontSize=13;strokeColor=default;strokeWidth=1.5;rounded=1;arcSize=12;edgeStyle=orthogonalEdgeStyle;startArrow=block;startFill=1;endArrow=block;endFill=1;exitX=0.5;exitY=1;exitPerimeter=0;entryX=0.5;entryY=0;lucidId=Wh5cpuIhzJHz;fontStyle=0;entryDx=0;entryDy=0;" parent="1" source="nUzkdtZB0xW63iCa-Nw7-20" target="NRNRq8OHyKzjC0IbYxwc-1" edge="1">
          <mxGeometry width="100" height="100" relative="1" as="geometry">
            <Array as="points" />
          </mxGeometry>
        </mxCell>
        <mxCell id="nUzkdtZB0xW63iCa-Nw7-15" value="WEBHOOKS" style="html=1;overflow=block;blockSpacing=1;whiteSpace=wrap;fontSize=13.3;fontColor=#ffffff;fontStyle=0;align=center;spacing=9;verticalAlign=middle;strokeColor=#ffffff;strokeOpacity=100;fillOpacity=100;rounded=1;absoluteArcSize=1;arcSize=9;fillColor=#635dff;strokeWidth=1.5;lucidId=jc5cG-lgkJSh;" parent="1" vertex="1">
          <mxGeometry x="144" y="780" width="97" height="53" as="geometry" />
        </mxCell>
        <mxCell id="nUzkdtZB0xW63iCa-Nw7-16" value="Redis " style="html=1;overflow=block;blockSpacing=1;whiteSpace=wrap;fontSize=16.7;fontStyle=0;align=center;spacing=9;strokeOpacity=0;fillOpacity=100;rounded=1;absoluteArcSize=1;arcSize=9;fillColor=#c3f7c8;strokeWidth=1.5;lucidId=3J5cHQ8043z~;" parent="1" vertex="1">
          <mxGeometry x="333" y="249" width="67" height="331" as="geometry" />
        </mxCell>
        <mxCell id="nUzkdtZB0xW63iCa-Nw7-18" value="REST" style="html=1;overflow=block;blockSpacing=1;whiteSpace=wrap;fontSize=16.7;fontStyle=0;align=center;spacing=9;strokeOpacity=0;fillOpacity=100;rounded=1;absoluteArcSize=1;arcSize=9;fillColor=#fcce14;strokeWidth=1.5;lucidId=HZ4c7lAVyPyr;" parent="1" vertex="1">
          <mxGeometry x="-584" y="459" width="109" height="127" as="geometry" />
        </mxCell>
        <mxCell id="nUzkdtZB0xW63iCa-Nw7-19" value="Socket.io" style="html=1;overflow=block;blockSpacing=1;whiteSpace=wrap;fontSize=16.7;fontStyle=0;align=center;spacing=9;verticalAlign=middle;strokeOpacity=0;fillOpacity=100;rounded=1;absoluteArcSize=1;arcSize=9;fillColor=#fcce14;strokeWidth=1.5;lucidId=x74cnt7NlLuL;" parent="1" vertex="1">
          <mxGeometry x="-584" y="264" width="109" height="127" as="geometry" />
        </mxCell>
        <mxCell id="nUzkdtZB0xW63iCa-Nw7-20" value="Message" style="html=1;overflow=block;blockSpacing=1;whiteSpace=wrap;fontSize=16.7;fontColor=#ffffff;fontStyle=0;align=center;spacing=9;verticalAlign=top;strokeOpacity=0;fillOpacity=100;rounded=1;absoluteArcSize=1;arcSize=9;fillColor=#979ea8;strokeWidth=1.5;lucidId=fALc.GhtOYFA;" parent="1" vertex="1">
          <mxGeometry x="116" y="538.5" width="153" height="125" as="geometry" />
        </mxCell>
        <mxCell id="nUzkdtZB0xW63iCa-Nw7-21" value="" style="html=1;jettySize=18;whiteSpace=wrap;fontSize=13;strokeColor=default;strokeWidth=1.5;rounded=1;arcSize=12;edgeStyle=orthogonalEdgeStyle;startArrow=block;startFill=1;endArrow=block;endFill=1;exitX=1;exitY=0.5;exitPerimeter=0;entryX=0;entryY=0.5;entryPerimeter=0;lucidId=5H5cJmLpe_el;fontStyle=0" parent="1" source="nUzkdtZB0xW63iCa-Nw7-19" target="nUzkdtZB0xW63iCa-Nw7-46" edge="1">
          <mxGeometry width="100" height="100" relative="1" as="geometry">
            <Array as="points" />
          </mxGeometry>
        </mxCell>
        <mxCell id="nUzkdtZB0xW63iCa-Nw7-22" value="" style="html=1;jettySize=18;whiteSpace=wrap;fontSize=13;strokeColor=default;strokeWidth=1.5;rounded=1;arcSize=12;edgeStyle=orthogonalEdgeStyle;startArrow=block;startFill=1;endArrow=block;endFill=1;exitX=1;exitY=0.5;exitPerimeter=0;entryX=0;entryY=0.5;lucidId=7M5cEgo.8n6S;fontStyle=0;entryDx=0;entryDy=0;" parent="1" source="nUzkdtZB0xW63iCa-Nw7-17" target="nUzkdtZB0xW63iCa-Nw7-20" edge="1">
          <mxGeometry width="100" height="100" relative="1" as="geometry">
            <Array as="points" />
          </mxGeometry>
        </mxCell>
        <mxCell id="nUzkdtZB0xW63iCa-Nw7-23" value="Langraph" style="html=1;overflow=block;blockSpacing=1;whiteSpace=wrap;fontSize=16.7;fontStyle=0;align=center;spacing=9;verticalAlign=top;strokeOpacity=0;fillOpacity=100;rounded=1;absoluteArcSize=1;arcSize=9;fillColor=#fff7a1;strokeWidth=1.5;lucidId=Uv5cd.NyrXPX;" parent="1" vertex="1">
          <mxGeometry x="138" y="593" width="109" height="38" as="geometry" />
        </mxCell>
        <mxCell id="nUzkdtZB0xW63iCa-Nw7-24" value="" style="html=1;jettySize=18;whiteSpace=wrap;fontSize=13;strokeColor=default;strokeWidth=1.5;rounded=1;arcSize=12;edgeStyle=orthogonalEdgeStyle;startArrow=block;startFill=1;endArrow=block;endFill=1;exitX=0;exitY=0.034;exitPerimeter=0;entryX=0.988;entryY=0.77;entryPerimeter=0;lucidId=5P5c4k0kWvIT;fontStyle=0" parent="1" source="nUzkdtZB0xW63iCa-Nw7-20" target="nUzkdtZB0xW63iCa-Nw7-9" edge="1">
          <mxGeometry width="100" height="100" relative="1" as="geometry">
            <Array as="points" />
          </mxGeometry>
        </mxCell>
        <mxCell id="nUzkdtZB0xW63iCa-Nw7-29" value="" style="html=1;overflow=block;blockSpacing=1;whiteSpace=wrap;fontSize=13;align=center;spacing=3.8;strokeOpacity=100;fillOpacity=100;rounded=1;absoluteArcSize=1;arcSize=9;fillColor=none;dashed=1;fixDash=1;dashPattern=8 8;strokeWidth=1.5;lucidId=v2LcKO9BX8t_;fontStyle=0" parent="1" vertex="1">
          <mxGeometry x="681" y="113" width="449" height="612" as="geometry" />
        </mxCell>
        <mxCell id="nUzkdtZB0xW63iCa-Nw7-30" value="Agents" style="html=1;overflow=block;blockSpacing=1;whiteSpace=wrap;fontSize=16.7;fontStyle=0;align=left;spacing=0;verticalAlign=middle;strokeOpacity=100;rounded=1;absoluteArcSize=1;arcSize=9;fillColor=none;strokeWidth=NaN;lucidId=v2Lc4-h5E1sQ;strokeColor=none;" parent="1" vertex="1">
          <mxGeometry x="695" y="115" width="132" height="53" as="geometry" />
        </mxCell>
        <mxCell id="nUzkdtZB0xW63iCa-Nw7-59" style="edgeStyle=orthogonalEdgeStyle;rounded=0;orthogonalLoop=1;jettySize=auto;html=1;exitX=1;exitY=0.5;exitDx=0;exitDy=0;entryX=0;entryY=0.5;entryDx=0;entryDy=0;startArrow=classic;startFill=1;fontStyle=0" parent="1" source="nUzkdtZB0xW63iCa-Nw7-31" target="nUzkdtZB0xW63iCa-Nw7-56" edge="1">
          <mxGeometry relative="1" as="geometry" />
        </mxCell>
        <mxCell id="nUzkdtZB0xW63iCa-Nw7-31" value="Voting" style="html=1;overflow=block;blockSpacing=1;whiteSpace=wrap;fontSize=16.7;fontColor=#ffffff;fontStyle=0;align=center;spacing=9;strokeOpacity=0;fillOpacity=100;rounded=1;absoluteArcSize=1;arcSize=9;fillColor=#4c535d;strokeWidth=1.5;lucidId=AWLcgVHqaEJb;" parent="1" vertex="1">
          <mxGeometry x="719" y="392.5" width="165" height="102" as="geometry" />
        </mxCell>
        <mxCell id="nUzkdtZB0xW63iCa-Nw7-55" style="edgeStyle=orthogonalEdgeStyle;rounded=0;orthogonalLoop=1;jettySize=auto;html=1;exitX=1;exitY=0.5;exitDx=0;exitDy=0;startArrow=classic;startFill=1;fontStyle=0" parent="1" source="nUzkdtZB0xW63iCa-Nw7-32" target="nUzkdtZB0xW63iCa-Nw7-54" edge="1">
          <mxGeometry relative="1" as="geometry" />
        </mxCell>
        <mxCell id="nUzkdtZB0xW63iCa-Nw7-32" value="Budget" style="html=1;overflow=block;blockSpacing=1;whiteSpace=wrap;fontSize=16.7;fontColor=#ffffff;fontStyle=0;align=center;spacing=9;strokeOpacity=0;fillOpacity=100;rounded=1;absoluteArcSize=1;arcSize=9;fillColor=#4c535d;strokeWidth=1.5;lucidId=kXLc-Uf29qqT;" parent="1" vertex="1">
          <mxGeometry x="719" y="560" width="165" height="102" as="geometry" />
        </mxCell>
        <mxCell id="nUzkdtZB0xW63iCa-Nw7-58" style="edgeStyle=orthogonalEdgeStyle;rounded=0;orthogonalLoop=1;jettySize=auto;html=1;exitX=1;exitY=0.5;exitDx=0;exitDy=0;entryX=0;entryY=0.5;entryDx=0;entryDy=0;startArrow=classic;startFill=1;fontStyle=0" parent="1" source="nUzkdtZB0xW63iCa-Nw7-33" target="nUzkdtZB0xW63iCa-Nw7-56" edge="1">
          <mxGeometry relative="1" as="geometry" />
        </mxCell>
        <mxCell id="nUzkdtZB0xW63iCa-Nw7-33" value="Attendance" style="html=1;overflow=block;blockSpacing=1;whiteSpace=wrap;fontSize=16.7;fontColor=#ffffff;fontStyle=0;align=center;spacing=9;strokeOpacity=0;fillOpacity=100;rounded=1;absoluteArcSize=1;arcSize=9;fillColor=#4c535d;strokeWidth=1.5;lucidId=NZLcRJQl1mac;" parent="1" vertex="1">
          <mxGeometry x="719" y="235" width="165" height="102" as="geometry" />
        </mxCell>
        <mxCell id="nUzkdtZB0xW63iCa-Nw7-34" value="" style="html=1;jettySize=18;whiteSpace=wrap;fontSize=13;strokeColor=default;strokeWidth=1.5;rounded=1;arcSize=12;edgeStyle=orthogonalEdgeStyle;startArrow=block;startFill=1;endArrow=block;endFill=1;exitX=1;exitY=0.5;exitPerimeter=0;entryX=0;entryY=0.5;entryPerimeter=0;lucidId=WZLcBSNOz16.;fontStyle=0" parent="1" source="nUzkdtZB0xW63iCa-Nw7-23" target="nUzkdtZB0xW63iCa-Nw7-33" edge="1">
          <mxGeometry width="100" height="100" relative="1" as="geometry">
            <Array as="points" />
          </mxGeometry>
        </mxCell>
        <mxCell id="nUzkdtZB0xW63iCa-Nw7-35" value="" style="html=1;jettySize=18;whiteSpace=wrap;fontSize=13;strokeColor=default;strokeWidth=1.5;rounded=0;startArrow=block;startFill=1;endArrow=block;endFill=1;exitX=1;exitY=0.5;exitPerimeter=0;entryX=0;entryY=0.5;entryPerimeter=0;lucidId=pXLcy~6w~MPh;fontStyle=0" parent="1" source="nUzkdtZB0xW63iCa-Nw7-23" target="nUzkdtZB0xW63iCa-Nw7-32" edge="1">
          <mxGeometry width="100" height="100" relative="1" as="geometry">
            <Array as="points" />
          </mxGeometry>
        </mxCell>
        <mxCell id="nUzkdtZB0xW63iCa-Nw7-36" value="" style="html=1;jettySize=18;whiteSpace=wrap;fontSize=13;strokeColor=default;strokeWidth=1.5;rounded=1;arcSize=12;edgeStyle=orthogonalEdgeStyle;startArrow=block;startFill=1;endArrow=block;endFill=1;exitX=1;exitY=0.5;exitPerimeter=0;entryX=0;entryY=0.5;entryPerimeter=0;lucidId=TWLcaWQ_HGru;fontStyle=0" parent="1" source="nUzkdtZB0xW63iCa-Nw7-23" target="nUzkdtZB0xW63iCa-Nw7-31" edge="1">
          <mxGeometry width="100" height="100" relative="1" as="geometry">
            <Array as="points" />
          </mxGeometry>
        </mxCell>
        <mxCell id="nUzkdtZB0xW63iCa-Nw7-37" value="mcp" style="html=1;overflow=block;blockSpacing=1;whiteSpace=wrap;fontSize=11.7;align=center;spacing=0;strokeOpacity=100;fillOpacity=100;rounded=1;absoluteArcSize=1;arcSize=9;fillColor=#ffffff;strokeWidth=1.5;strokeColor=none;lucidId=5X5cWgnG83J8;fontStyle=0" parent="1" vertex="1">
          <mxGeometry x="523" y="575" width="98" height="23" as="geometry" />
        </mxCell>
        <mxCell id="nUzkdtZB0xW63iCa-Nw7-38" value="JETSTREAM" style="html=1;overflow=block;blockSpacing=1;whiteSpace=wrap;fontSize=16.7;fontStyle=0;align=center;spacing=0;strokeOpacity=100;rounded=1;absoluteArcSize=1;arcSize=9;strokeWidth=NaN;lucidId=H77c8rObXn1.;fillColor=none;strokeColor=none;" parent="1" vertex="1">
          <mxGeometry x="-269" y="421" width="180" height="45" as="geometry" />
        </mxCell>
        <mxCell id="nUzkdtZB0xW63iCa-Nw7-39" value="mcp" style="html=1;overflow=block;blockSpacing=1;whiteSpace=wrap;fontSize=11.7;align=center;spacing=0;strokeOpacity=100;fillOpacity=100;rounded=1;absoluteArcSize=1;arcSize=9;fillColor=#ffffff;strokeWidth=1.5;strokeColor=none;lucidId=d17c8kyNsL7X;fontStyle=0" parent="1" vertex="1">
          <mxGeometry x="523" y="414" width="98" height="23" as="geometry" />
        </mxCell>
        <mxCell id="nUzkdtZB0xW63iCa-Nw7-40" value="mcp" style="html=1;overflow=block;blockSpacing=1;whiteSpace=wrap;fontSize=11.7;align=center;spacing=0;strokeOpacity=100;fillOpacity=100;rounded=1;absoluteArcSize=1;arcSize=9;fillColor=#ffffff;strokeWidth=1.5;strokeColor=none;lucidId=h17cfTDgVhFU;fontStyle=0" parent="1" vertex="1">
          <mxGeometry x="523" y="258" width="98" height="23" as="geometry" />
        </mxCell>
        <mxCell id="nUzkdtZB0xW63iCa-Nw7-41" value="" style="html=1;jettySize=18;whiteSpace=wrap;fontSize=13;strokeColor=default;strokeWidth=1.5;rounded=0;startArrow=block;startFill=1;endArrow=block;endFill=1;exitX=0.998;exitY=0.023;exitPerimeter=0;lucidId=v47c6M4VXGSf;fontStyle=0;" parent="1" source="nUzkdtZB0xW63iCa-Nw7-20" edge="1">
          <mxGeometry width="100" height="100" relative="1" as="geometry">
            <Array as="points" />
            <mxPoint x="333" y="541" as="targetPoint" />
          </mxGeometry>
        </mxCell>
        <mxCell id="nUzkdtZB0xW63iCa-Nw7-42" value="" style="html=1;jettySize=18;whiteSpace=wrap;fontSize=13;strokeColor=default;strokeWidth=1.5;rounded=0;startArrow=block;startFill=1;endArrow=block;endFill=1;exitX=0.998;exitY=0.978;exitPerimeter=0;entryX=0.043;entryY=0.063;entryPerimeter=0;lucidId=R47cojJWgUcy;fontStyle=0;entryDx=0;entryDy=0;" parent="1" source="nUzkdtZB0xW63iCa-Nw7-11" target="nUzkdtZB0xW63iCa-Nw7-16" edge="1">
          <mxGeometry width="100" height="100" relative="1" as="geometry">
            <Array as="points" />
          </mxGeometry>
        </mxCell>
        <mxCell id="nUzkdtZB0xW63iCa-Nw7-43" value="" style="html=1;overflow=block;blockSpacing=1;whiteSpace=wrap;fontSize=13;spacing=3.8;strokeOpacity=100;fillOpacity=100;rounded=1;absoluteArcSize=1;arcSize=9;fillColor=none;dashed=1;fixDash=1;dashPattern=8 8;strokeWidth=1.5;lucidId=GD8cBVrJHFnm;container=1;collapsible=0;strokeColor=default;fontStyle=0" parent="1" vertex="1">
          <mxGeometry x="-641" y="-188" width="293" height="246" as="geometry" />
        </mxCell>
        <mxCell id="nUzkdtZB0xW63iCa-Nw7-44" value="Observability" style="html=1;overflow=block;blockSpacing=1;whiteSpace=wrap;fontSize=16.7;fontStyle=0;align=center;spacing=0;strokeOpacity=100;rounded=1;absoluteArcSize=1;arcSize=9;fillColor=none;strokeWidth=NaN;lucidId=GD8ctpArJ5IR;shadow=0;strokeColor=none;" parent="nUzkdtZB0xW63iCa-Nw7-43" vertex="1">
          <mxGeometry width="160" height="45" as="geometry" />
        </mxCell>
        <mxCell id="nUzkdtZB0xW63iCa-Nw7-45" value="" style="html=1;jettySize=18;whiteSpace=wrap;fontSize=13;strokeColor=default;strokeWidth=1.5;rounded=0;startArrow=block;startFill=1;endArrow=block;endFill=1;exitX=0.564;exitY=1.003;exitPerimeter=0;entryX=0.851;entryY=0;entryPerimeter=0;lucidId=dK8cRq7Nppyz;fontStyle=0" parent="1" source="nUzkdtZB0xW63iCa-Nw7-43" target="nUzkdtZB0xW63iCa-Nw7-4" edge="1">
          <mxGeometry width="100" height="100" relative="1" as="geometry">
            <Array as="points" />
          </mxGeometry>
        </mxCell>
        <mxCell id="nUzkdtZB0xW63iCa-Nw7-46" value="Redis " style="html=1;overflow=block;blockSpacing=1;whiteSpace=wrap;fontSize=16.7;fontStyle=0;align=center;spacing=9;strokeOpacity=0;fillOpacity=100;rounded=1;absoluteArcSize=1;arcSize=9;fillColor=#c3f7c8;strokeWidth=1.5;lucidId=yG5ccmNxk.tc;" parent="1" vertex="1">
          <mxGeometry x="-375" y="302" width="75" height="50" as="geometry" />
        </mxCell>
        <mxCell id="nUzkdtZB0xW63iCa-Nw7-47" value="" style="group;dropTarget=0;pointerEvents=0;fontStyle=0" parent="1" vertex="1">
          <mxGeometry x="-571" y="-141" width="153" height="175" as="geometry" />
        </mxCell>
        <mxCell id="nUzkdtZB0xW63iCa-Nw7-48" value="Prometeus" style="html=1;overflow=block;blockSpacing=1;whiteSpace=wrap;fontSize=16.7;fontColor=#ffffff;fontStyle=0;align=center;spacing=9;verticalAlign=middle;strokeOpacity=0;fillOpacity=100;rounded=1;absoluteArcSize=1;arcSize=9;fillColor=#e08fff;strokeWidth=1.5;lucidId=OF8c9r.awj_1;" parent="nUzkdtZB0xW63iCa-Nw7-47" vertex="1">
          <mxGeometry width="153" height="51" as="geometry" />
        </mxCell>
        <mxCell id="nUzkdtZB0xW63iCa-Nw7-49" value="Loki" style="html=1;overflow=block;blockSpacing=1;whiteSpace=wrap;fontSize=16.7;fontColor=#ffffff;fontStyle=0;align=center;spacing=9;verticalAlign=middle;strokeOpacity=0;fillOpacity=100;rounded=1;absoluteArcSize=1;arcSize=9;fillColor=#e08fff;strokeWidth=1.5;lucidId=gG8cnoK2YAZ6;" parent="nUzkdtZB0xW63iCa-Nw7-47" vertex="1">
          <mxGeometry y="62" width="153" height="51" as="geometry" />
        </mxCell>
        <mxCell id="nUzkdtZB0xW63iCa-Nw7-50" value="Grafana" style="html=1;overflow=block;blockSpacing=1;whiteSpace=wrap;fontSize=16.7;fontColor=#ffffff;fontStyle=0;align=center;spacing=9;verticalAlign=middle;strokeOpacity=0;fillOpacity=100;rounded=1;absoluteArcSize=1;arcSize=9;fillColor=#e08fff;strokeWidth=1.5;lucidId=jG8cJkzR4r9V;" parent="nUzkdtZB0xW63iCa-Nw7-47" vertex="1">
          <mxGeometry y="124" width="153" height="51" as="geometry" />
        </mxCell>
        <mxCell id="nUzkdtZB0xW63iCa-Nw7-51" value="" style="html=1;jettySize=18;whiteSpace=wrap;fontSize=13;strokeColor=default;strokeWidth=1.5;rounded=1;arcSize=12;edgeStyle=orthogonalEdgeStyle;startArrow=block;startFill=1;endArrow=block;endFill=1;exitX=0.763;exitY=1.003;exitPerimeter=0;entryX=0;entryY=0.95;entryPerimeter=0;lucidId=rR8cPAm~teU6;fontStyle=0" parent="1" source="nUzkdtZB0xW63iCa-Nw7-43" target="nUzkdtZB0xW63iCa-Nw7-20" edge="1">
          <mxGeometry width="100" height="100" relative="1" as="geometry">
            <Array as="points" />
          </mxGeometry>
        </mxCell>
        <mxCell id="nUzkdtZB0xW63iCa-Nw7-52" value="" style="html=1;jettySize=18;whiteSpace=wrap;fontSize=13;strokeColor=default;strokeWidth=1.5;rounded=1;arcSize=12;edgeStyle=orthogonalEdgeStyle;startArrow=block;startFill=1;endArrow=block;endFill=1;exitX=1.003;exitY=0.802;exitPerimeter=0;entryX=0.481;entryY=0;entryPerimeter=0;lucidId=MR8c9_qS3FIx;fontStyle=0" parent="1" source="nUzkdtZB0xW63iCa-Nw7-43" target="nUzkdtZB0xW63iCa-Nw7-8" edge="1">
          <mxGeometry width="100" height="100" relative="1" as="geometry">
            <Array as="points" />
          </mxGeometry>
        </mxCell>
        <mxCell id="nUzkdtZB0xW63iCa-Nw7-53" value="" style="html=1;jettySize=18;whiteSpace=wrap;fontSize=13;strokeColor=default;strokeWidth=1.5;rounded=1;arcSize=12;edgeStyle=orthogonalEdgeStyle;startArrow=block;startFill=1;endArrow=block;endFill=1;exitX=1;exitY=0.5;exitPerimeter=0;entryX=0.5;entryY=0;entryPerimeter=0;lucidId=ST8caBiYOR_1;fontStyle=0" parent="1" source="nUzkdtZB0xW63iCa-Nw7-43" target="nUzkdtZB0xW63iCa-Nw7-11" edge="1">
          <mxGeometry width="100" height="100" relative="1" as="geometry">
            <Array as="points" />
          </mxGeometry>
        </mxCell>
        <mxCell id="nUzkdtZB0xW63iCa-Nw7-54" value="Postgresql" style="html=1;overflow=block;blockSpacing=1;whiteSpace=wrap;fontSize=16.7;fontStyle=0;align=center;spacing=9;strokeOpacity=0;fillOpacity=100;rounded=1;absoluteArcSize=1;arcSize=9;fillColor=#9391ff;strokeWidth=1.5;lucidId=wK5c~Pdr7-m1;strokeColor=none;" parent="1" vertex="1">
          <mxGeometry x="980" y="592" width="120" height="38" as="geometry" />
        </mxCell>
        <mxCell id="nUzkdtZB0xW63iCa-Nw7-56" value="Qdrant" style="rounded=1;whiteSpace=wrap;html=1;fontSize=16;fillColor=#ffcc99;strokeColor=none;fontStyle=0" parent="1" vertex="1">
          <mxGeometry x="980" y="339.5" width="120" height="38.5" as="geometry" />
        </mxCell>
        <mxCell id="nUzkdtZB0xW63iCa-Nw7-60" value="&lt;font style=&quot;font-size: 16px;&quot;&gt;Nginx&lt;/font&gt;&lt;div&gt;&lt;div&gt;(Port 8080)&lt;/div&gt;&lt;/div&gt;" style="rounded=1;whiteSpace=wrap;html=1;fontSize=13;fontStyle=0;" parent="1" vertex="1">
          <mxGeometry x="-375" y="918" width="152.5" height="70" as="geometry" />
        </mxCell>
        <mxCell id="NRNRq8OHyKzjC0IbYxwc-2" value="" style="shape=image;verticalLabelPosition=bottom;labelBackgroundColor=default;verticalAlign=top;aspect=fixed;imageAspect=0;image=https://upload.wikimedia.org/wikipedia/commons/thumb/8/82/Telegram_logo.svg/2048px-Telegram_logo.svg.png;" parent="1" vertex="1">
          <mxGeometry x="130" y="925.25" width="43.5" height="43.5" as="geometry" />
        </mxCell>
      </root>
    </mxGraphModel>
  </diagram>
</mxfile>
